<mxfile host="app.diagrams.net" modified="2023-06-04T18:59:12.964Z" agent="Mozilla/5.0 (Windows NT 10.0; Win64; x64; rv:109.0) Gecko/20100101 Firefox/113.0" etag="q1uy3Wp10_ElhvaZ_mFg" version="21.2.9" type="device">
  <diagram name="Page-1" id="YZwiyK6gep2CHrH-zCMh">
    <mxGraphModel dx="467" dy="253" grid="1" gridSize="10" guides="1" tooltips="1" connect="1" arrows="1" fold="1" page="1" pageScale="1" pageWidth="827" pageHeight="1169" math="0" shadow="0">
      <root>
        <mxCell id="0" />
        <mxCell id="1" parent="0" />
        <mxCell id="GP2TlYIGCeF_vBENNfqN-1" value="&lt;font style=&quot;font-size: 18px;&quot;&gt;&lt;b style=&quot;&quot;&gt;Architecture Électronique Capteurs&lt;/b&gt;&lt;/font&gt;" style="text;html=1;strokeColor=none;fillColor=none;align=center;verticalAlign=middle;whiteSpace=wrap;rounded=0;" parent="1" vertex="1">
          <mxGeometry x="219" y="40" width="389" height="30" as="geometry" />
        </mxCell>
        <mxCell id="GP2TlYIGCeF_vBENNfqN-34" style="edgeStyle=orthogonalEdgeStyle;rounded=0;orthogonalLoop=1;jettySize=auto;html=1;exitX=0;exitY=0.5;exitDx=0;exitDy=0;entryX=1;entryY=0.5;entryDx=0;entryDy=0;" parent="1" source="GP2TlYIGCeF_vBENNfqN-2" target="GP2TlYIGCeF_vBENNfqN-32" edge="1">
          <mxGeometry relative="1" as="geometry">
            <Array as="points">
              <mxPoint x="283" y="270" />
              <mxPoint x="283" y="195" />
            </Array>
          </mxGeometry>
        </mxCell>
        <mxCell id="GP2TlYIGCeF_vBENNfqN-35" value="ESP-NOW" style="edgeLabel;html=1;align=center;verticalAlign=middle;resizable=0;points=[];" parent="GP2TlYIGCeF_vBENNfqN-34" vertex="1" connectable="0">
          <mxGeometry x="0.1744" y="2" relative="1" as="geometry">
            <mxPoint x="12" y="-2" as="offset" />
          </mxGeometry>
        </mxCell>
        <mxCell id="GP2TlYIGCeF_vBENNfqN-39" style="edgeStyle=orthogonalEdgeStyle;rounded=0;orthogonalLoop=1;jettySize=auto;html=1;exitX=0.75;exitY=0;exitDx=0;exitDy=0;entryX=0.5;entryY=1;entryDx=0;entryDy=0;" parent="1" source="GP2TlYIGCeF_vBENNfqN-2" target="GP2TlYIGCeF_vBENNfqN-37" edge="1">
          <mxGeometry relative="1" as="geometry" />
        </mxCell>
        <mxCell id="GP2TlYIGCeF_vBENNfqN-41" value="IO" style="edgeLabel;html=1;align=center;verticalAlign=middle;resizable=0;points=[];" parent="GP2TlYIGCeF_vBENNfqN-39" vertex="1" connectable="0">
          <mxGeometry x="-0.2082" y="-2" relative="1" as="geometry">
            <mxPoint as="offset" />
          </mxGeometry>
        </mxCell>
        <mxCell id="GP2TlYIGCeF_vBENNfqN-40" style="edgeStyle=orthogonalEdgeStyle;rounded=0;orthogonalLoop=1;jettySize=auto;html=1;exitX=0.25;exitY=0;exitDx=0;exitDy=0;entryX=0.5;entryY=1;entryDx=0;entryDy=0;" parent="1" source="GP2TlYIGCeF_vBENNfqN-2" target="GP2TlYIGCeF_vBENNfqN-38" edge="1">
          <mxGeometry relative="1" as="geometry" />
        </mxCell>
        <mxCell id="GP2TlYIGCeF_vBENNfqN-42" value="IO" style="edgeLabel;html=1;align=center;verticalAlign=middle;resizable=0;points=[];" parent="GP2TlYIGCeF_vBENNfqN-40" vertex="1" connectable="0">
          <mxGeometry x="-0.2224" relative="1" as="geometry">
            <mxPoint as="offset" />
          </mxGeometry>
        </mxCell>
        <mxCell id="GP2TlYIGCeF_vBENNfqN-61" style="edgeStyle=orthogonalEdgeStyle;rounded=0;orthogonalLoop=1;jettySize=auto;html=1;entryX=0;entryY=0.5;entryDx=0;entryDy=0;" parent="1" source="GP2TlYIGCeF_vBENNfqN-2" target="GP2TlYIGCeF_vBENNfqN-5" edge="1">
          <mxGeometry relative="1" as="geometry" />
        </mxCell>
        <mxCell id="GP2TlYIGCeF_vBENNfqN-2" value="ESP32 Wroom" style="rounded=0;whiteSpace=wrap;html=1;" parent="1" vertex="1">
          <mxGeometry x="342" y="190" width="144" height="160" as="geometry" />
        </mxCell>
        <mxCell id="GP2TlYIGCeF_vBENNfqN-63" style="edgeStyle=orthogonalEdgeStyle;rounded=0;orthogonalLoop=1;jettySize=auto;html=1;entryX=1;entryY=0.5;entryDx=0;entryDy=0;" parent="1" source="GP2TlYIGCeF_vBENNfqN-3" target="GP2TlYIGCeF_vBENNfqN-2" edge="1">
          <mxGeometry relative="1" as="geometry">
            <Array as="points">
              <mxPoint x="570" y="210" />
              <mxPoint x="570" y="270" />
            </Array>
          </mxGeometry>
        </mxCell>
        <mxCell id="GP2TlYIGCeF_vBENNfqN-3" value="Capteur Mouvement" style="rounded=0;whiteSpace=wrap;html=1;" parent="1" vertex="1">
          <mxGeometry x="570" y="190" width="120" height="40" as="geometry" />
        </mxCell>
        <mxCell id="GP2TlYIGCeF_vBENNfqN-62" style="edgeStyle=orthogonalEdgeStyle;rounded=0;orthogonalLoop=1;jettySize=auto;html=1;entryX=1;entryY=0.5;entryDx=0;entryDy=0;" parent="1" source="GP2TlYIGCeF_vBENNfqN-4" target="GP2TlYIGCeF_vBENNfqN-2" edge="1">
          <mxGeometry relative="1" as="geometry">
            <Array as="points">
              <mxPoint x="570" y="330" />
              <mxPoint x="570" y="270" />
            </Array>
          </mxGeometry>
        </mxCell>
        <mxCell id="GP2TlYIGCeF_vBENNfqN-64" value="I2C" style="edgeLabel;html=1;align=center;verticalAlign=middle;resizable=0;points=[];" parent="GP2TlYIGCeF_vBENNfqN-62" vertex="1" connectable="0">
          <mxGeometry x="0.3397" y="-3" relative="1" as="geometry">
            <mxPoint y="3" as="offset" />
          </mxGeometry>
        </mxCell>
        <mxCell id="GP2TlYIGCeF_vBENNfqN-4" value="Capteur Humidité" style="rounded=0;whiteSpace=wrap;html=1;" parent="1" vertex="1">
          <mxGeometry x="570" y="310" width="120" height="40" as="geometry" />
        </mxCell>
        <mxCell id="GP2TlYIGCeF_vBENNfqN-5" value="Capteur Température" style="rounded=0;whiteSpace=wrap;html=1;" parent="1" vertex="1">
          <mxGeometry x="570" y="250" width="120" height="40" as="geometry" />
        </mxCell>
        <mxCell id="GP2TlYIGCeF_vBENNfqN-11" style="edgeStyle=orthogonalEdgeStyle;rounded=0;orthogonalLoop=1;jettySize=auto;html=1;entryX=0;entryY=0.5;entryDx=0;entryDy=0;" parent="1" source="GP2TlYIGCeF_vBENNfqN-12" target="GP2TlYIGCeF_vBENNfqN-26" edge="1">
          <mxGeometry relative="1" as="geometry" />
        </mxCell>
        <mxCell id="GP2TlYIGCeF_vBENNfqN-29" style="edgeStyle=orthogonalEdgeStyle;rounded=0;orthogonalLoop=1;jettySize=auto;html=1;entryX=0.5;entryY=1;entryDx=0;entryDy=0;" parent="1" source="GP2TlYIGCeF_vBENNfqN-12" target="GP2TlYIGCeF_vBENNfqN-2" edge="1">
          <mxGeometry relative="1" as="geometry">
            <Array as="points">
              <mxPoint x="444" y="400" />
              <mxPoint x="414" y="400" />
            </Array>
          </mxGeometry>
        </mxCell>
        <mxCell id="0XhrMRfS0cMP0D1kSLi_-6" value="&lt;div&gt;3.3V&lt;/div&gt;" style="edgeLabel;html=1;align=center;verticalAlign=middle;resizable=0;points=[];" vertex="1" connectable="0" parent="GP2TlYIGCeF_vBENNfqN-29">
          <mxGeometry x="0.4354" y="1" relative="1" as="geometry">
            <mxPoint as="offset" />
          </mxGeometry>
        </mxCell>
        <mxCell id="GP2TlYIGCeF_vBENNfqN-12" value="Régulateur 3.3V" style="rounded=0;whiteSpace=wrap;html=1;" parent="1" vertex="1">
          <mxGeometry x="384" y="440" width="120" height="60" as="geometry" />
        </mxCell>
        <mxCell id="0XhrMRfS0cMP0D1kSLi_-4" value="" style="edgeStyle=orthogonalEdgeStyle;rounded=0;orthogonalLoop=1;jettySize=auto;html=1;" edge="1" parent="1">
          <mxGeometry relative="1" as="geometry">
            <mxPoint x="621" y="565" as="sourcePoint" />
            <mxPoint x="491" y="565" as="targetPoint" />
          </mxGeometry>
        </mxCell>
        <mxCell id="0XhrMRfS0cMP0D1kSLi_-5" value="&lt;div&gt;3.4V à 4.2V&lt;/div&gt;" style="edgeLabel;html=1;align=center;verticalAlign=middle;resizable=0;points=[];" vertex="1" connectable="0" parent="0XhrMRfS0cMP0D1kSLi_-4">
          <mxGeometry x="0.2429" y="-1" relative="1" as="geometry">
            <mxPoint x="14" y="1" as="offset" />
          </mxGeometry>
        </mxCell>
        <mxCell id="GP2TlYIGCeF_vBENNfqN-15" value="Batterie" style="text;html=1;strokeColor=none;fillColor=none;align=center;verticalAlign=middle;whiteSpace=wrap;rounded=0;" parent="1" vertex="1">
          <mxGeometry x="620" y="550" width="60" height="30" as="geometry" />
        </mxCell>
        <mxCell id="0XhrMRfS0cMP0D1kSLi_-7" style="edgeStyle=orthogonalEdgeStyle;rounded=0;orthogonalLoop=1;jettySize=auto;html=1;entryX=0.5;entryY=1;entryDx=0;entryDy=0;" edge="1" parent="1" source="GP2TlYIGCeF_vBENNfqN-17" target="GP2TlYIGCeF_vBENNfqN-15">
          <mxGeometry relative="1" as="geometry">
            <Array as="points">
              <mxPoint x="289" y="610" />
              <mxPoint x="650" y="610" />
            </Array>
          </mxGeometry>
        </mxCell>
        <mxCell id="0XhrMRfS0cMP0D1kSLi_-11" value="&lt;div style=&quot;font-size: 13px;&quot;&gt;&lt;font style=&quot;font-size: 13px;&quot;&gt;Environ 3.8V&lt;/font&gt;&lt;/div&gt;" style="edgeLabel;html=1;align=center;verticalAlign=middle;resizable=0;points=[];fontSize=13;" vertex="1" connectable="0" parent="0XhrMRfS0cMP0D1kSLi_-7">
          <mxGeometry x="0.084" y="3" relative="1" as="geometry">
            <mxPoint as="offset" />
          </mxGeometry>
        </mxCell>
        <mxCell id="GP2TlYIGCeF_vBENNfqN-17" value="Circuit de &lt;br&gt;Recharge" style="rounded=0;whiteSpace=wrap;html=1;" parent="1" vertex="1">
          <mxGeometry x="244" y="545" width="90" height="40" as="geometry" />
        </mxCell>
        <mxCell id="GP2TlYIGCeF_vBENNfqN-18" style="edgeStyle=orthogonalEdgeStyle;rounded=0;orthogonalLoop=1;jettySize=auto;html=1;entryX=0;entryY=0.5;entryDx=0;entryDy=0;" parent="1" source="GP2TlYIGCeF_vBENNfqN-23" target="GP2TlYIGCeF_vBENNfqN-17" edge="1">
          <mxGeometry relative="1" as="geometry">
            <Array as="points">
              <mxPoint x="149" y="565" />
            </Array>
          </mxGeometry>
        </mxCell>
        <mxCell id="GP2TlYIGCeF_vBENNfqN-19" value="DC 5V" style="edgeLabel;html=1;align=center;verticalAlign=middle;resizable=0;points=[];" parent="GP2TlYIGCeF_vBENNfqN-18" vertex="1" connectable="0">
          <mxGeometry x="0.142" y="1" relative="1" as="geometry">
            <mxPoint as="offset" />
          </mxGeometry>
        </mxCell>
        <mxCell id="GP2TlYIGCeF_vBENNfqN-20" value="" style="edgeStyle=orthogonalEdgeStyle;rounded=0;orthogonalLoop=1;jettySize=auto;html=1;" parent="1" source="GP2TlYIGCeF_vBENNfqN-23" target="GP2TlYIGCeF_vBENNfqN-28" edge="1">
          <mxGeometry relative="1" as="geometry" />
        </mxCell>
        <mxCell id="GP2TlYIGCeF_vBENNfqN-21" style="edgeStyle=orthogonalEdgeStyle;rounded=0;orthogonalLoop=1;jettySize=auto;html=1;entryX=0.25;entryY=1;entryDx=0;entryDy=0;exitX=0.75;exitY=1;exitDx=0;exitDy=0;" parent="1" source="GP2TlYIGCeF_vBENNfqN-23" target="GP2TlYIGCeF_vBENNfqN-12" edge="1">
          <mxGeometry relative="1" as="geometry">
            <Array as="points">
              <mxPoint x="167" y="530" />
              <mxPoint x="414" y="530" />
            </Array>
          </mxGeometry>
        </mxCell>
        <mxCell id="GP2TlYIGCeF_vBENNfqN-22" value="DC 5V" style="edgeLabel;html=1;align=center;verticalAlign=middle;resizable=0;points=[];" parent="GP2TlYIGCeF_vBENNfqN-21" vertex="1" connectable="0">
          <mxGeometry x="-0.1083" y="1" relative="1" as="geometry">
            <mxPoint as="offset" />
          </mxGeometry>
        </mxCell>
        <mxCell id="GP2TlYIGCeF_vBENNfqN-23" value="Port MICRO USB" style="rounded=0;whiteSpace=wrap;html=1;" parent="1" vertex="1">
          <mxGeometry x="114" y="460" width="70" height="40" as="geometry" />
        </mxCell>
        <mxCell id="GP2TlYIGCeF_vBENNfqN-24" value="" style="edgeStyle=orthogonalEdgeStyle;rounded=0;orthogonalLoop=1;jettySize=auto;html=1;" parent="1" source="GP2TlYIGCeF_vBENNfqN-25" target="GP2TlYIGCeF_vBENNfqN-23" edge="1">
          <mxGeometry relative="1" as="geometry" />
        </mxCell>
        <mxCell id="GP2TlYIGCeF_vBENNfqN-25" value="5V" style="text;html=1;strokeColor=none;fillColor=none;align=center;verticalAlign=middle;whiteSpace=wrap;rounded=0;" parent="1" vertex="1">
          <mxGeometry x="134" y="410" width="30" height="30" as="geometry" />
        </mxCell>
        <mxCell id="GP2TlYIGCeF_vBENNfqN-26" value="LED d&#39;alim" style="rounded=0;whiteSpace=wrap;html=1;" parent="1" vertex="1">
          <mxGeometry x="575" y="450" width="110" height="40" as="geometry" />
        </mxCell>
        <mxCell id="GP2TlYIGCeF_vBENNfqN-27" value="" style="edgeStyle=orthogonalEdgeStyle;rounded=0;orthogonalLoop=1;jettySize=auto;html=1;" parent="1" source="GP2TlYIGCeF_vBENNfqN-28" target="GP2TlYIGCeF_vBENNfqN-23" edge="1">
          <mxGeometry relative="1" as="geometry">
            <Array as="points">
              <mxPoint x="204" y="480" />
              <mxPoint x="204" y="480" />
            </Array>
          </mxGeometry>
        </mxCell>
        <mxCell id="GP2TlYIGCeF_vBENNfqN-30" style="edgeStyle=orthogonalEdgeStyle;rounded=0;orthogonalLoop=1;jettySize=auto;html=1;entryX=0.25;entryY=1;entryDx=0;entryDy=0;" parent="1" source="GP2TlYIGCeF_vBENNfqN-28" target="GP2TlYIGCeF_vBENNfqN-2" edge="1">
          <mxGeometry relative="1" as="geometry">
            <Array as="points">
              <mxPoint x="274" y="390" />
              <mxPoint x="378" y="390" />
            </Array>
          </mxGeometry>
        </mxCell>
        <mxCell id="GP2TlYIGCeF_vBENNfqN-31" value="UART" style="edgeLabel;html=1;align=center;verticalAlign=middle;resizable=0;points=[];" parent="GP2TlYIGCeF_vBENNfqN-30" vertex="1" connectable="0">
          <mxGeometry x="0.2324" y="1" relative="1" as="geometry">
            <mxPoint as="offset" />
          </mxGeometry>
        </mxCell>
        <mxCell id="GP2TlYIGCeF_vBENNfqN-56" style="edgeStyle=orthogonalEdgeStyle;rounded=0;orthogonalLoop=1;jettySize=auto;html=1;entryX=0.5;entryY=1;entryDx=0;entryDy=0;" parent="1" source="GP2TlYIGCeF_vBENNfqN-28" target="GP2TlYIGCeF_vBENNfqN-45" edge="1">
          <mxGeometry relative="1" as="geometry">
            <Array as="points">
              <mxPoint x="274" y="390" />
              <mxPoint x="164" y="390" />
            </Array>
          </mxGeometry>
        </mxCell>
        <mxCell id="GP2TlYIGCeF_vBENNfqN-28" value="USB to Serial Converter" style="rounded=0;whiteSpace=wrap;html=1;" parent="1" vertex="1">
          <mxGeometry x="224" y="460" width="100" height="40" as="geometry" />
        </mxCell>
        <mxCell id="GP2TlYIGCeF_vBENNfqN-32" value="Panneau De Contrôle" style="text;html=1;strokeColor=none;fillColor=none;align=center;verticalAlign=middle;whiteSpace=wrap;rounded=0;" parent="1" vertex="1">
          <mxGeometry x="103" y="180" width="136" height="30" as="geometry" />
        </mxCell>
        <mxCell id="GP2TlYIGCeF_vBENNfqN-37" value="LED verte" style="rounded=0;whiteSpace=wrap;html=1;" parent="1" vertex="1">
          <mxGeometry x="428" y="110" width="76" height="40" as="geometry" />
        </mxCell>
        <mxCell id="GP2TlYIGCeF_vBENNfqN-38" value="LED Bleu" style="rounded=0;whiteSpace=wrap;html=1;" parent="1" vertex="1">
          <mxGeometry x="324" y="110" width="76" height="40" as="geometry" />
        </mxCell>
        <mxCell id="GP2TlYIGCeF_vBENNfqN-54" style="edgeStyle=orthogonalEdgeStyle;rounded=0;orthogonalLoop=1;jettySize=auto;html=1;entryX=0;entryY=0.75;entryDx=0;entryDy=0;" parent="1" source="GP2TlYIGCeF_vBENNfqN-45" target="GP2TlYIGCeF_vBENNfqN-2" edge="1">
          <mxGeometry relative="1" as="geometry" />
        </mxCell>
        <mxCell id="GP2TlYIGCeF_vBENNfqN-55" value="IO" style="edgeLabel;html=1;align=center;verticalAlign=middle;resizable=0;points=[];" parent="GP2TlYIGCeF_vBENNfqN-54" vertex="1" connectable="0">
          <mxGeometry x="0.146" y="2" relative="1" as="geometry">
            <mxPoint as="offset" />
          </mxGeometry>
        </mxCell>
        <mxCell id="GP2TlYIGCeF_vBENNfqN-45" value="Reset Module" style="rounded=0;whiteSpace=wrap;html=1;" parent="1" vertex="1">
          <mxGeometry x="103" y="290" width="121" height="40" as="geometry" />
        </mxCell>
        <mxCell id="0XhrMRfS0cMP0D1kSLi_-3" value="5V" style="edgeStyle=orthogonalEdgeStyle;rounded=0;orthogonalLoop=1;jettySize=auto;html=1;" edge="1" parent="1" source="0XhrMRfS0cMP0D1kSLi_-1" target="GP2TlYIGCeF_vBENNfqN-12">
          <mxGeometry relative="1" as="geometry" />
        </mxCell>
        <mxCell id="0XhrMRfS0cMP0D1kSLi_-1" value="Régulateur 5V" style="rounded=0;whiteSpace=wrap;html=1;" vertex="1" parent="1">
          <mxGeometry x="400" y="545" width="90" height="40" as="geometry" />
        </mxCell>
      </root>
    </mxGraphModel>
  </diagram>
</mxfile>
